<?xml version="1.0" encoding="utf-8"?>
<!-- Generator: Adobe Illustrator 19.2.1, SVG Export Plug-In . SVG Version: 6.00 Build 0)  -->
<svg version="1.1" id="Layer_1" xmlns="http://www.w3.org/2000/svg" xmlns:xlink="http://www.w3.org/1999/xlink" x="0px" y="0px"
	 viewBox="0 0 283.2 28.9" style="enable-background:new 0 0 283.2 28.9;" xml:space="preserve">
<style type="text/css">
	.st0{fill:#FFFFFF;}
</style>
<title>Wall_Street_Journal_White</title>
<path class="st0" d="M46.5,0c0.3,0.1,0.5,0.2,0.4,0.6c-0.1,0.7-1.2,0.4-1.8,0.6c-1.5,0.5-1,2.5-1.2,3.9v19.7c0,0.8-0.1,1.7,0.5,2
	c0.4,0.6,1.6,0.2,2.4,0.3c1.2-0.2,1.7-1.5,2.5-2.1c0.3-1.1,0.8-2,1-3.1c0.6-2,0.3-4.6,1-6.6c0.4-0.1,0.5,0.2,0.6,0.5v11
	c0.1,0.4,0,0.7-0.1,1.1l-0.9,0.2h-11c-0.4,0-0.9-0.1-1.2-0.4c0.1-1.1,1.9-0.6,1.9-1.9v-14c-0.1-1.8,0-4.1,0-5.8s0.5-4-0.7-4.9
	c-0.5-0.5-2.1,0.3-1.9-0.8C38.1,0.2,38.3,0,38.5,0L46.5,0L46.5,0z"/>
<path class="st0" d="M86.5,1.5c0.4,0.2,0.8,0.1,1.1-0.1C88,1,87.6,0,88.4,0.1l0.5,0.1v10.5c-0.2,0.1,0,0.7-0.3,0.7H88
	c-0.2-3.8-0.5-7.7-3.3-9.4c-0.5-0.3-1.1-0.5-1.7-0.5c-1.1,0.2-2,0.9-2.4,1.9C80,4.6,80,6.2,80.7,7.5c1.5,2.1,3.9,3.3,5.7,5
	c1.8,1.9,3.9,3.9,4,7.1c0.4,3.1-0.8,6.2-3.2,8.3c-1.4,0.9-3.2,1-4.8,0.4l-2.1-1.4c-0.5-0.2-0.6,0.3-0.8,0.5c0.1,0.5-0.1,0.9-0.5,1.2
	l-0.7-0.2l-0.1-5.8V16c0.3-0.1,0.6-0.1,0.9,0c0.2,4.1,0.3,8.4,3.3,10.4c0.9,0.7,2.1,1,3.3,0.7c1.9-0.8,2.6-2.9,2.6-5.2
	c-0.1-1.8-1-3.5-2.4-4.6c-1.9-2.3-4.7-3.5-6.5-6c-0.4-0.7-0.7-1.4-0.9-2.1c-0.8-3,0-6.3,2.2-8.6c1-0.7,2.3-0.9,3.5-0.7
	C85.1,0.4,85.8,0.8,86.5,1.5L86.5,1.5L86.5,1.5z"/>
<path class="st0" d="M7.8,0.1c0.3,0,0.5,0.2,0.6,0.5C8.1,1.3,7.2,1.3,6.9,1.9C6.7,2.7,6.6,3.5,6.8,4.3L8,11.3c0.5,2.3,1,4.7,1.6,7
	h0.3c0.8-3.4,1.4-6.8,2-10.1c-0.6-2.6-0.1-6.1-2.5-7.3c-0.1-0.3,0-0.6,0.2-0.7C9.7,0.1,9.9,0.1,10,0.1c1.4,0.1,5.9,0,7,0.1
	c0.1,0.3,0.1,0.5,0,0.8c-0.8,0.3-1.7,0.2-2.2,0.9c-1.1,1.8,0.4,3.7,0.3,5.8l1.2,6.3c0.3,1.4,0.3,3.1,1.1,4.2h0.1l1.5-6.5
	c0.8-2.7,1.2-5.6,1.8-8.4c0.2-0.7-0.1-1.5-0.7-1.9C19.6,1.1,19,1,18.4,1c-0.1-0.3-0.1-0.5,0-0.8c1.5,0,6.1-0.1,6.7,0
	c0.3,0.1,0.2,0.6,0.1,0.8c-0.9,0.1-1.7,0.4-2.3,1c-0.5,1.6-1,3.2-1.3,4.9l-1.7,7.8c-1,4.3-2.1,8.6-3.1,13c-0.2,0.3-0.6,0.3-0.9,0.1
	c0,0,0,0,0,0c-0.6-0.8-0.6-2.1-0.9-3.2L13.5,16l-0.8-3.6h-0.2l-1.2,5.9c-0.6,2.9-1.2,5.8-1.8,8.8c0,0.5-0.5,0.9-1,0.9
	c-0.1,0-0.2,0-0.3-0.1c-0.7-0.2-0.4-1.1-0.6-1.7L7.1,23l-1.5-7.8l-1-5.7C4.3,7.2,3.8,4.9,3.3,2.7C3,2.1,2.7,1.6,2.2,1.3
	C1.5,1.1,0.9,1.4,0.2,1C0,0.8-0.1,0.2,0.3,0.1C0.3,0.1,7.8,0.1,7.8,0.1z"/>
<path class="st0" d="M61.9,0.1c0.2,0.2,0.2,0.5,0.1,0.8c-0.9,0.4-2.4,0-2.6,1.1c-0.2,3.1-0.2,5.4-0.2,8.5l-0.1,12.1h-0.1
	c0.6,1.5-0.8,4.5,1.4,4.6c0.7,0.1,1.4,0.1,2-0.2c2-1.6,2.6-4.3,3-7c0.3-1.4,0.1-3.1,0.5-4.5c0.3-0.1,0.5-0.1,0.8,0v12.2l-0.1,0.5
	c-1.6,0-3.3,0-4.5,0.1l-5.7-0.1h-3.1c-0.5,0-0.3-0.7-0.2-1c1-0.1,2.2,0,2.7-0.8c0.4-1.5,0.1-3.5,0.3-5.1c-0.2-1.4,0.1-2.9-0.1-4.5
	l0.1-1.3V2.8c-0.1-0.5-0.4-1-0.7-1.4c-0.6-0.7-3,0.3-2.1-1.3L61.9,0.1L61.9,0.1z"/>
<path class="st0" d="M104,0.2l0.2,0.5v11.5c-0.1,0.2-0.3,0.4-0.5,0.5l-0.5-0.2c0.1-3.3-0.3-6.5-1.4-9.6c-0.2-0.6-0.7-1.1-1.3-1.4
	c-0.4-0.1-0.9,0.1-1.2,0.4V23h-0.1c0.1,1.5-0.2,3.4,0.9,4.1c0.7,0.5,1.9-0.3,2,0.8c0,0.8-1.1,0.2-1.6,0.5h-2.2v-0.1
	c-0.7,0.3-1.4-0.2-2,0.1c-0.9-0.1-1.9-0.1-2.8-0.1c-0.3-0.1-0.2-0.7-0.1-0.9c1.1-0.2,2.3-0.3,2.7-1.5V2c-0.1-0.4-0.5-0.7-0.9-0.7
	c-1.5,0.4-1.9,2-2.3,3.5c-0.6,2.3-0.8,4.7-0.7,7.1c-0.2,0.3,0,0.8-0.5,0.8l-0.6-0.2v-12C92.5,0,100.9,0.1,104,0.2L104,0.2L104,0.2z"
	/>
<path class="st0" d="M136.8,0.2c0.7,0.3,0.3,1.7,0.4,2.4c0.3,1.6-0.2,3.4,0.1,4.8c-0.3,0.6,0.1,1,0,1.6s0,1.7-0.2,2.3
	c-1.4,0.1-0.7-1.7-0.9-2.6c-0.3-3.1-1.4-5.9-4-7.2c-0.9-0.3-2.4-0.3-3,0.4c-0.6,1.8-0.3,4.8-0.3,6.5c0,0.5,0,1,0,1.5v2.8
	c0.1,0.3-0.1,1.1,0.6,1c2.4-1.1,2.7-3.9,2.7-6.7c0-0.4,0.2-0.6,0.8-0.5l0.1,0.6c-0.2,1.3,0.2,2.9-0.1,4.3c0,1.4,0,3.3,0.1,4.8
	c-0.1,1.7-0.1,3.4,0,5.2c0,0.3-0.2,0.6-0.4,0.6c-0.1,0-0.1,0-0.2,0c-0.7-0.6-0.2-2.3-0.5-3.2c-0.4-1.7-0.8-3.7-2.7-4.1l-0.3,0.2
	c-0.1,1.9-0.2,3.8-0.1,5.8c0,1.8,0.1,4.1,0,5.9c0.6,1.2,2.1,0.7,3.5,0.7c2.5-1.1,3.4-4.1,3.9-6.9l1.2,0.3v7.4l-0.3,0.3l-11.5,0.1
	c-0.8-0.2-2.2,0.1-3-0.2c-0.3-1.6,1.6-0.5,2.2-1.1c0.4-0.2,0.7-0.6,0.8-1V2.6c-0.2-0.5-0.5-0.9-0.9-1.2c-0.7-0.3-2.2,0.3-2.1-0.9
	l0.2-0.3L136.8,0.2L136.8,0.2z"/>
<path class="st0" d="M151.3,0.2c0.5,0.3,1.9-0.2,2.2,0.4c0,3.7,0.1,6.9,0,10.4c-0.2,0.2-0.5,0.3-0.7,0.2c0,0-0.1,0-0.1-0.1
	c-0.4-3.9-0.3-8.4-3.9-9.9c-0.8-0.3-1.7,0.1-2.5,0.1c-0.5,0.4-0.9,1-0.9,1.7v9.6c0,0.3,0.2,0.5,0.5,0.5c2.7-0.7,2.5-4,2.9-6.7
	c0.2-0.2,0.6-0.2,0.8,0v4.1c0.2,0.2,0,0.2,0,0.6c0.1,0.9,0.1,1.8,0.1,2.7v2.7c-0.3,1.5,0.1,3.4-0.3,4.8c-0.2,0.2-0.5,0.1-0.6-0.1
	c0,0-0.1-0.1-0.1-0.1c-0.2-2.3-0.2-5.3-2-6.7c-0.3-0.2-0.8-0.2-1.1,0l-0.2,0.7v6.5h0.1c0.1,1.6-0.6,4.2,0.6,5.2
	c0.9,0.4,1.9,0.5,2.9,0.3c2.2-0.7,2.8-3,3.6-5c-0.2-0.8,0.3-1.6,0.3-2.5l0.2-3.2c0.1-0.2,0.4-0.3,0.7-0.1c0,0,0,0,0,0l0.2,0.2
	c-0.3,1.5,0.6,3.9-0.8,4.5c-0.1,0.4-0.6,0.4-0.6,0.9c0.5-0.4,0.9-0.9,1.3-1.4h0.1l-0.1,5.8c-0.2,0.7,0.3,1.8-0.5,2
	c-1.7,0.1-3.3,0.2-5,0.1c-3.2-0.2-6.2-0.1-9.2-0.1c-0.3-0.2-0.3-0.6-0.1-0.9c0,0,0,0,0,0c0.9-0.3,2.1-0.1,2.7-1
	c0.9-0.7,0.4-2.7,0.5-4c0.1-2.2-0.2-5.1,0-7.1l-0.1-5.7v-7c-0.2-0.9-0.9-1.5-1.8-1.5c-0.6,0-1.3,0.1-1.1-0.7
	C139.3,0.1,149.7,0.2,151.3,0.2L151.3,0.2L151.3,0.2z"/>
<path class="st0" d="M168.7,0.5l0.2,0.3l0.1,7.7c-0.3,1.3,0,2.9-0.2,4.2c-0.3,0.2-0.6,0.1-0.8-0.1l-0.3-4.9c-0.4-2.3-0.8-4.4-2.1-6
	c-0.3-0.3-0.8-0.3-1.2,0L164,2.1v24.2c0.2,1.4,2.2,0.6,3,1.2c0.1,0.3,0,0.7-0.4,0.9c0,0-0.1,0-0.1,0c-2.6,0.3-5.2-0.2-7.8,0
	c-0.6,0.1-0.6-0.6-0.4-0.9c0.9-0.2,2-0.1,2.3-1l0.1-11.1V2.2c-0.2-0.3-0.5-0.6-0.8-0.7c-1.8,0.2-1.9,2-2.4,3.3l-0.8,5.4
	c-0.2,0.9,0.2,2.1-0.3,2.6l-0.6-0.1l-0.1-5.6c0-2-0.1-4.5,0.1-6.5C156.5,0.1,167,0.4,168.7,0.5L168.7,0.5L168.7,0.5z"/>
<path class="st0" d="M190.1,0.4c0.5-0.1,0.6,0.4,0.4,0.7c-1,0.2-2,0.2-2.6,0.9c-0.7,1.6,0.1,3.7-0.2,5.4c0.1,0.3-0.1,0.9,0,1.4
	c0.1,1.3,0,2.8,0,4v11.1c-0.6,2-1.5,4-3.5,4.5c-1.5,0.4-3.2-0.1-4.2-1.4c-1.1-1.6-2.3-3.7-1.4-6.1c0.4-0.9,1.2-1.4,2.1-1.5
	c0.5,0.1,1,0.4,1.3,0.9c-0.1,0.9,0.5,1.9-0.1,2.5c-0.1,0.8-1.2,0.8-1.2,1.7c0,1.1,0.6,2.1,1.6,2.6c0.7,0.2,1.5-0.1,1.9-0.7
	c0.7-2,0.3-5.2,0.3-7.4l0.1-5.8V3c-0.2-0.6-0.5-1.1-0.9-1.6c-0.6-0.5-2,0.2-2.3-0.6l0.3-0.6C184.9,0.2,187.1,0.5,190.1,0.4
	L190.1,0.4L190.1,0.4z"/>
<path class="st0" d="M211.9,0.5c0.5-0.3,1.1-0.2,1.5,0.2c0.1,0.6-0.3,0.7-0.7,0.8c-0.5,0-1,0.2-1.4,0.6c-0.3,0.9-0.5,1.8-0.4,2.7
	v11.3l-0.1,0.1c0.2,3,0,5,0.2,8.1c0.3,1.2,1,2.3,2.1,2.9c0.9,0.3,2,0,2.7-0.6c0.8-0.7,1.3-1.8,1.4-2.9v-10l-0.1-0.6l0.1-8.8
	c0.1-0.9-0.1-1.8-0.6-2.6c-0.6-0.3-1.3-0.5-2-0.5l0.1-0.7l5.3-0.1c0.3,0,0.5,0.2,0.5,0.5c0,0.5-0.8,0.2-1,0.4c-0.5,0.1-0.9,0.5-1,1
	L218.2,4v19.9c-0.2,1.6-1.1,3.1-2.4,4.1c-0.8,0.7-2.4,0.4-3.3,0.6c-2-0.4-3.6-1.8-4.3-3.7c-1.2-2.5-0.4-6.6-0.7-9.2V2.8
	c-0.2-0.5-0.5-1-1-1.3c-0.5-0.2-1.4,0-1.4-0.6s0.6-0.3,0.9-0.5L211.9,0.5L211.9,0.5L211.9,0.5z"/>
<path class="st0" d="M242.6,0.5c0.3,0.1,0.5,0.3,0.7,0.6c2,5.6,3.5,11.3,5.8,16.7c0.6-0.1-0.2-0.7,0.2-1c-0.1-2.1,0.1-4.1-0.1-6.3
	c0.2-1.2,0-2.1,0.1-3.4c-0.3-0.2,0.2-0.5-0.1-0.6c0.1-1.4,0-2.9-0.1-4.3c-0.6-0.7-1.5-1-2.4-0.9c0-0.1-0.2-0.7,0.2-0.8h5.8
	c0.4,0.1,0.2,0.5,0.2,0.8c-0.6,0.3-1.5,0.2-1.9,0.8l-0.4,1l-0.1,5.4v17c0,1,0,1.9-0.1,2.9c-0.2,0.2-0.6,0.3-0.9,0.1
	c-0.7-0.9-0.6-2.4-1.3-3.3c-1.1-2.7-1.7-5.8-2.8-8.4l-2-5.7c-0.3-1-0.8-1.8-1.1-2.7l-0.2,0.1c-0.3,1.1-0.3,2.3-0.1,3.4l-0.1,5.4v8.9
	c0.1,0.5,0.5,1,0.9,1.3c0.5,0.3,1.7-0.3,1.7,0.6l-0.1,0.4l-5.6,0.1c-0.4-0.1-0.9-0.1-0.9-0.6c0.4-0.8,2.1,0,2.5-1c0.4-1,0.5-2,0.4-3
	l-0.1-11.4V3.1c-0.2-1.4-1.6-1.5-2.7-1.8c-0.3-0.2,0-0.5,0-0.7C239.5,0.5,241.1,0.4,242.6,0.5L242.6,0.5L242.6,0.5z"/>
<path class="st0" d="M277.1,0.6c0.4,0,0.8,0.3,0.8,0.7c-0.2,0.7-1.5,0.3-2,0.7c-0.7,0.3-0.7,1.2-0.9,1.8V26
	c-0.2,0.6,0.1,1.3,0.6,1.6c1.1,0.4,2.4,0.5,3.6,0.1c1.6-1,1.9-3,2.6-4.8l0.7-5.2c0.2-0.2,0.6-0.2,0.8,0V27h-0.1
	c0.1,0.6,0,1.2-0.1,1.8c-0.6,0.1-1.1,0.1-1.7,0.1l-0.3-0.1l-5.4,0.1c-2.1-0.1-4.4,0.2-6.1-0.3c-0.2-0.2-0.2-0.5-0.1-0.7
	c0.6-0.4,1.9,0.1,2.2-0.8l0.1-1V2.6c-0.5-1-1.6-1.1-2.6-1.1c0-0.4-0.2-0.8,0.2-0.9L277.1,0.6L277.1,0.6z"/>
<path class="st0" d="M204.2,9.9c-0.6-2.5-1-5.1-2.3-6.9l0,0c-0.6-1.1-1.5-2-2.6-2.7c-1.5-0.5-3.3-0.2-4.5,0.9
	c-2.5,3.2-3.9,7.2-4,11.2c-0.1,6.3,0.8,11.8,4.6,15.3c0.8,0.8,2.6,0.7,3.8,0.4c1.3-0.8,2.4-2,3.2-3.4
	C204.4,21.1,204.9,15.1,204.2,9.9z M200.3,24.4c-0.2,0.9-0.6,1.7-1.2,2.5c-0.8,0.5-1.8,0.6-2.6,0.1c-1.5-1-1.8-2.9-1.7-4.6
	c-0.1-1.4,0.4-2.6,0-3.9c0.1-1.5,0-3.2,0.2-4.8c-0.2-0.1,0-0.7-0.2-0.8c0.4-0.5-0.1-0.8,0-1.3c0.1-2.5,0-4.4,0-7.3
	c0.4-1.3,1-2.8,2.4-3.1c1.3-0.1,2.4,0.7,2.9,1.9l0.2,1.9v6.3l0.1,0.1L200.3,24.4z"/>
<path class="st0" d="M122,22.1c-0.2-0.4-0.5,0.2-0.8,0c-0.2,0.9-0.2,1.9-0.2,2.8c-0.1,0.4-0.4,0.7-0.8,0.9c-0.3-0.1-0.5-0.3-0.6-0.6
	c-0.4-1.5-0.1-3.4-0.2-5.1c-0.1,0-0.1,0-0.2,0c-0.2-0.1-0.3-0.3-0.2-0.5c0.1-0.2,0.3,0,0.3,0.2c0-1.8-0.2-4.1-1.6-5.1
	c-0.4-0.6-1.1-0.6-0.9-1.3c1-0.7,1.9-1.6,2.6-2.6c1.4-1.9,1-5.5,0.3-7.7c-0.8-1.5-2.2-2.6-3.9-3.1l0,0h-9.7c-0.1,0-0.1,0-0.1,0
	c-0.3,0.1-0.4,0.5-0.3,0.8c0.2,0.5,1.1,0.2,1.6,0.4c0.8,0.3,1,1.2,1.2,2.1c-0.1,1,0,2.5-0.1,3.5c0.1,1.6,0.1,3.7,0.1,5.2
	c-0.1,2.1,0,4.4,0,6.8l-0.1,5.8c0.1,0.5,0,1.1-0.1,1.6c-0.3,0.4-0.6,0.7-1.1,0.9c-0.4,0.3-1.3-0.2-1.3,0.5c-0.4,1.2,1.3,0.3,1.8,0.7
	c0.1-0.2,0.4,0,0.6,0l5.2-0.1l0.2-0.3c0.1-0.8-0.6-0.7-1.1-0.8c-0.5-0.3-0.8-0.7-0.9-1.3v-11l0.2-0.4c0.7-0.3,1.4-0.3,2.1,0
	c1.4,0.4,1.7,1.9,2,3.3v7.1l0.3,1.9c0.5,0.8,1.3,1.4,2.2,1.7c0.7,0.1,1.5-0.1,2.1-0.5C122.1,26.8,122.2,24.4,122,22.1z M116.7,10.6
	c-0.2,0.9-0.7,1.6-1.4,2.2c-1,0.4-2.2,0.5-3.3,0.1l-0.1-10.2c0-0.7,0.5-1.4,1.3-1.4c0,0,0,0,0,0c0.6-0.1,1.3,0,1.9,0.1
	C117.8,3.2,116.8,7.5,116.7,10.6z"/>
<path class="st0" d="M237.6,22.6c-0.2-0.1-0.4-0.1-0.6,0c-0.2,1.3,0.1,3.1-1.1,3.5c-0.9-0.4-0.8-1.9-0.8-2.8l-0.2-5.1
	c0-0.9-0.3-1.8-0.8-2.6c-0.4-0.7-1.4-0.9-1.4-1.8c1.8-0.8,2.5-2.8,3.4-4.4c0.6-2.1,0.3-4.4-0.9-6.3c-1.2-2.4-4.2-3-7.2-2.6h0
	c-1.7,0-2.9,0-4.4-0.1c-0.7,0.3-1.3-0.3-1.6,0.4c0,0.7,0.9,0.4,1.4,0.6c0.5,0.3,0.8,0.9,0.9,1.5v22.9l-0.3,1
	c-0.6,0.5-1.3,0.8-2.1,0.8c-0.2,0.2-0.2,0.6,0,0.8l2.9,0.2l5.3-0.1c-0.1-0.3,0-0.6-0.1-0.8c-0.5-0.1-1.1-0.2-1.6-0.2
	c-0.6-0.3-0.9-0.9-0.9-1.6c0.1-4.1-0.4-7.3,0-11.1l0.2-0.3c1-0.4,2.1-0.2,3,0.4c1,0.7,1.1,2.2,1.2,3.5v5.8l0.3,2.9
	c0.6,0.5,0.6,1.5,1.5,1.5c0.8,0.2,1.7,0,2.4-0.4C237.4,26.7,237.9,24.6,237.6,22.6z M231.1,13c-1.2,0.3-2.4,0.3-3.6,0
	c-0.1-3.8-0.1-6.7-0.1-10.4c0.1-0.6,0.5-1,1.1-1.2c1.9-0.4,2.9,0.6,3.8,1.7l0,0c0.2,0.8,0.4,1.6,0.4,2.4l-0.1,5.3
	C232.5,11.7,232,12.5,231.1,13z"/>
<path class="st0" d="M267.8,27.6c-1.9-1-1.8-3.6-2.4-5.6l-1.8-8.3c-0.3-2.9-1.2-5.4-1.6-8.2l-1.1-4.9l-1.3-0.1
	c-0.6,1.4-1,2.9-1.2,4.4l-0.9,5l-1.5,8.6l-1.1,6.8c-0.1,0.9-0.7,1.8-1.5,2.3c-0.3,0.2-1.3-0.2-1.3,0.4c-0.3,1,0.8,0.6,1.3,0.8
	c1.7,0.1,3.4,0,5.1-0.2c0.7-1.5-1.3-0.6-1.8-1.1c-1.2-1-0.4-2.8-0.2-4c0-0.7,0.2-1.5,0.6-2.1c1.6-0.2,3.2-0.2,4.9-0.1
	c0.5,1.3,0.9,2.6,1.1,4c0.2,0.7,0,1.5-0.5,2.1c-0.6,0.4-2.3-0.2-1.8,1.2c2.6,0.2,5.2,0.3,7.8,0.1l0.1-0.2
	C268.9,27.7,268.3,27.7,267.8,27.6z M261.6,20.1l-4,0.1l-0.5-0.3c0.1-1.2,0.3-2.3,0.6-3.5l0.8-5.3c0.1-0.8,0.3-1.6,0.6-2.4l0.4,0.1
	l0,0c0.6,3.8,1.8,7.2,2.3,11L261.6,20.1z"/>
<path class="st0" d="M37.4,27.2c-0.9-0.1-1.7-0.7-1.9-1.6c-0.6-2.1-0.8-4.4-1.3-6.7L32.1,8.7c-0.4-2.8-1.2-5.2-1.6-7.9l0,0
	c0.2-1.1-1.7-0.8-1.8-0.3c-0.5,2.5-0.8,5-1.3,7.4l-1,5.8l-1.1,7c-0.5,1.8-0.5,3.8-1.2,5.4c-0.6,0.7-1.5,1.1-2.5,1.1
	c-0.2,0.2-0.3,1.1,0.3,0.9l5.7-0.1l0.1-0.6c-0.3-0.3-1.1-0.2-1.5-0.5c-1.1-1.8,0.2-3.8,0.3-5.6l0.4-0.2h4c1,0.7,0.6,2.4,1.1,3.4
	c0.1,0.6,0.3,1.6-0.2,2.1c-0.2,1.1-2.4-0.1-2.1,1.4c0.4,0.3,1.4,0,1.6,0.3h5.9l0.3-0.3C37.5,27.6,37.5,27.4,37.4,27.2z M27.7,19.9
	l-0.8-0.1l0.1-1.3l0.9-5.7l0.7-3.7l0.2,0.1l1.1,5v0l1,5.4C30.2,20.4,28.8,19.6,27.7,19.9z"/>
</svg>
