<svg id="Layer_1" data-name="Layer 1" xmlns="http://www.w3.org/2000/svg" viewBox="0 0 283.25 28.85"><defs><style>.cls-1{fill:#fff;fill-rule:evenodd;}</style></defs><title>Wall_Street_Journal_White</title><path class="cls-1" d="M48.53,3.83c0.3,0.1.5,0.2,0.4,0.6-0.1.7-1.19,0.4-1.79,0.6-1.49.5-1,2.49-1.19,3.88V28.6c0,0.8-.1,1.69.5,2,0.4,0.6,1.59.2,2.39,0.3,1.19-.2,1.69-1.49,2.49-2.09,0.3-1.09.8-2,1-3.08,0.6-2,.3-4.58,1-6.56,0.4-.1.5,0.2,0.6,0.5v11a2.07,2.07,0,0,1-.1,1.09l-0.9.2h-11a1.59,1.59,0,0,1-1.19-.4c0.1-1.09,1.89-.6,1.89-1.89v-14c-0.1-1.79,0-4.08,0-5.77s0.5-4-.7-4.87c-0.5-.5-2.09.3-1.89-0.8a0.7,0.7,0,0,1,.5-0.4h8.06Z" transform="translate(-2 -3.83)"/><path class="cls-1" d="M88.51,5.32a1,1,0,0,0,1.09-.1c0.4-.4,0-1.39.8-1.29L90.9,4V14.48c-0.2.1,0,.7-0.3,0.7H90c-0.2-3.78-.5-7.66-3.28-9.45A3.35,3.35,0,0,0,85,5.22a3.12,3.12,0,0,0-2.39,1.89,4.74,4.74,0,0,0,.1,4.18c1.49,2.09,3.88,3.28,5.67,5,1.79,1.89,3.88,3.88,4,7.06a9.28,9.28,0,0,1-3.18,8.26,5.37,5.37,0,0,1-4.77.4l-2.09-1.39c-0.5-.2-0.6.3-0.8,0.5a1.15,1.15,0,0,1-.5,1.19l-0.7-.2-0.1-5.77V19.85a1.38,1.38,0,0,1,.9,0c0.2,4.08.3,8.36,3.28,10.44a3.75,3.75,0,0,0,3.28.7c1.89-.8,2.59-2.88,2.59-5.17a6.3,6.3,0,0,0-2.39-4.58c-1.89-2.29-4.67-3.48-6.47-6a13.19,13.19,0,0,1-.9-2.09,8.91,8.91,0,0,1,2.19-8.55,4.66,4.66,0,0,1,3.48-.7,5.91,5.91,0,0,1,2.29,1.39h0Z" transform="translate(-2 -3.83)"/><path class="cls-1" d="M9.83,3.93a0.74,0.74,0,0,1,.6.5c-0.3.7-1.19,0.7-1.49,1.29a3.89,3.89,0,0,0-.1,2.39L10,15.17c0.5,2.29,1,4.68,1.59,7h0.3c0.8-3.38,1.39-6.76,2-10.15-0.6-2.59-.1-6.07-2.49-7.26a0.55,0.55,0,0,1,.6-0.8c1.39,0.1,5.87,0,7,.1a1.1,1.1,0,0,1,0,.8c-0.8.3-1.69,0.2-2.19,0.89-1.09,1.79.4,3.68,0.3,5.77l1.19,6.27c0.3,1.39.3,3.08,1.09,4.18h0.1L21,15.47c0.8-2.69,1.19-5.57,1.79-8.36a1.64,1.64,0,0,0-.7-1.89,3,3,0,0,0-1.69-.4,1.1,1.1,0,0,1,0-.8c1.49,0,6.07-.1,6.66,0,0.3,0.1.2,0.6,0.1,0.8a4,4,0,0,0-2.29,1,44,44,0,0,0-1.29,4.87l-1.69,7.76c-1,4.28-2.09,8.65-3.08,13a0.64,0.64,0,0,1-.9.1c-0.6-.8-0.6-2.09-0.9-3.18L15.5,19.85l-0.8-3.58h-0.2l-1.19,5.87c-0.6,2.88-1.19,5.77-1.79,8.75a0.93,0.93,0,0,1-1.29.8c-0.7-.2-0.4-1.09-0.6-1.69l-0.5-3.18L7.64,19l-1-5.67C6.35,11,5.75,8.71,5.26,6.52A3,3,0,0,0,4.16,5.13c-0.7-.2-1.29.1-2-0.3-0.2-.2-0.3-0.8.1-0.9H9.83Z" transform="translate(-2 -3.83)"/><path class="cls-1" d="M32.51,4.63c0.4,2.69,1.19,5.07,1.59,7.86l2.09,10.24c0.5,2.29.7,4.58,1.29,6.66A2.12,2.12,0,0,0,39.37,31a0.92,0.92,0,0,1,.1.7l-0.3.3H33.31c-0.2-.3-1.19,0-1.59-0.3-0.3-1.49,1.89-.3,2.09-1.39,0.5-.5.3-1.49,0.2-2.09-0.5-1-.1-2.69-1.09-3.38h-4l-0.4.2c-0.1,1.79-1.39,3.78-.3,5.57,0.4,0.3,1.19.2,1.49,0.5l-0.1.6-5.67.1c-0.6.2-.5-0.7-0.3-0.9a3,3,0,0,0,2.49-1.09c0.7-1.59.7-3.58,1.19-5.37l1.09-7,1-5.77c0.5-2.39.8-4.87,1.29-7.36,0.1-.5,2-0.8,1.79.3h0Z" transform="translate(-2 -3.83)"/><path class="cls-1" d="M63.94,3.93a0.78,0.78,0,0,1,.1.8c-0.9.4-2.39,0-2.59,1.09-0.2,3.08-.2,5.37-0.2,8.45l-0.1,12.13h-0.1c0.6,1.49-.8,4.48,1.39,4.58a3.43,3.43,0,0,0,2-.2c2-1.59,2.59-4.28,3-7,0.3-1.39.1-3.08,0.5-4.48a1.1,1.1,0,0,1,.8,0V31.48l-0.1.5c-1.59,0-3.28,0-4.48.1L58.47,32H55.39c-0.5,0-.3-0.7-0.2-1,1-.1,2.19,0,2.69-0.8,0.4-1.49.1-3.48,0.3-5.07-0.2-1.39.1-2.88-.1-4.48l0.1-1.29V6.62a3.07,3.07,0,0,0-.7-1.39c-0.6-.7-3,0.3-2.09-1.29h8.55Z" transform="translate(-2 -3.83)"/><path class="cls-1" d="M106,4l0.2,0.5V16a0.82,0.82,0,0,1-.5.5l-0.5-.2a27,27,0,0,0-1.39-9.65,2.53,2.53,0,0,0-1.29-1.39,1.2,1.2,0,0,0-1.19.4V26.81h-0.1c0.1,1.49-.2,3.38.9,4.08,0.7,0.5,1.89-.3,2,0.8,0,0.8-1.09.2-1.59,0.5h-2.19v-0.1c-0.7.3-1.39-.2-2,0.1a23.47,23.47,0,0,0-2.79-.1c-0.3-.1-0.2-0.7-0.1-0.9,1.09-.2,2.29-0.3,2.69-1.49V5.82a1.06,1.06,0,0,0-.89-0.7c-1.49.4-1.89,2-2.29,3.48a22.73,22.73,0,0,0-.7,7.06c-0.2.3,0,.8-0.5,0.8l-0.6-.2v-12c1.29-.4,9.75-0.3,12.83-0.2h0Z" transform="translate(-2 -3.83)"/><path class="cls-1" d="M117.85,4a6.38,6.38,0,0,1,3.88,3.08c0.7,2.19,1.09,5.77-.3,7.66a9.15,9.15,0,0,1-2.59,2.59c-0.2.7,0.5,0.7,0.89,1.29,1.39,1,1.59,3.28,1.59,5.07,0-.2-0.2-0.4-0.3-0.2a0.37,0.37,0,0,0,.4.5c0.1,1.69-.2,3.58.2,5.07a0.9,0.9,0,0,0,.6.6,1.41,1.41,0,0,0,.8-0.9,13.15,13.15,0,0,1,.2-2.79c0.3,0.2.6-.4,0.8,0,0.2,2.29.1,4.68-1.39,5.77a2.88,2.88,0,0,1-2.09.5,3.78,3.78,0,0,1-2.19-1.69l-0.3-1.89V21.54c-0.3-1.39-.6-2.88-2-3.28a2.55,2.55,0,0,0-2.09,0l-0.2.4v11a1.83,1.83,0,0,0,.9,1.29c0.5,0.1,1.19,0,1.09.8l-0.2.3-5.17.1c-0.2,0-.5-0.2-0.6,0-0.5-.4-2.19.5-1.79-0.7,0-.7.89-0.2,1.29-0.5a2.43,2.43,0,0,0,1.09-.9,4.31,4.31,0,0,0,.1-1.59l0.1-5.77c0-2.39-.1-4.67,0-6.76,0-1.49,0-3.58-.1-5.17,0.1-1,0-2.49.1-3.48-0.2-.89-0.4-1.79-1.19-2.09-0.5-.2-1.39.1-1.59-0.4a0.56,0.56,0,0,1,.4-0.8h9.65Z" transform="translate(-2 -3.83)"/><path class="cls-1" d="M138.84,4c0.7,0.3.3,1.69,0.4,2.39,0.3,1.59-.2,3.38.1,4.77-0.3.6,0.1,1,0,1.59s0,1.69-.2,2.29c-1.39.1-.7-1.69-0.9-2.59-0.3-3.08-1.39-5.87-4-7.16-0.9-.3-2.39-0.3-3,0.4-0.6,1.79-.3,4.77-0.3,6.47a7.47,7.47,0,0,0,0,1.49v2.78c0.1,0.3-.1,1.09.6,1,2.39-1.09,2.69-3.88,2.69-6.66,0-.4.2-0.6,0.8-0.5l0.1,0.6c-0.2,1.29.2,2.88-.1,4.28,0,1.39,0,3.28.1,4.77a44.79,44.79,0,0,0,0,5.17,0.53,0.53,0,0,1-.6.6c-0.7-.6-0.2-2.29-0.5-3.18-0.4-1.69-.8-3.68-2.69-4.08l-0.3.2a56.69,56.69,0,0,0-.1,5.77c0,1.79.1,4.08,0,5.87,0.6,1.19,2.09.7,3.48,0.7,2.49-1.09,3.38-4.08,3.88-6.86l1.19,0.3v7.36l-0.3.3-11.54.1c-0.8-.2-2.19.1-3-0.2-0.3-1.59,1.59-.5,2.19-1.09a2,2,0,0,0,.8-1V6.42a2.25,2.25,0,0,0-.9-1.19c-0.7-.3-2.19.3-2.09-0.9l0.2-.3h13.93Z" transform="translate(-2 -3.83)"/><path class="cls-1" d="M153.26,4c0.5,0.3,1.89-.2,2.19.4,0,3.68.1,6.86,0,10.44a0.52,0.52,0,0,1-.8.1c-0.4-3.88-.3-8.45-3.88-9.85-0.8-.3-1.69.1-2.49,0.1a2.22,2.22,0,0,0-.9,1.69v9.65a0.53,0.53,0,0,0,.5.5c2.69-.7,2.49-4,2.88-6.66a0.6,0.6,0,0,1,.8,0v4.08c0.2,0.2,0,.2,0,0.6a22.49,22.49,0,0,1,.1,2.69v2.69c-0.3,1.49.1,3.38-.3,4.77a0.44,0.44,0,0,1-.7-0.2c-0.2-2.29-.2-5.27-2-6.66a1.07,1.07,0,0,0-1.09,0l-0.2.7v6.47h0.1c0.1,1.59-.6,4.18.6,5.17A4.68,4.68,0,0,0,151,31c2.19-.7,2.79-3,3.58-5-0.2-.8.3-1.59,0.3-2.49l0.2-3.18a0.48,0.48,0,0,1,.7-0.1l0.2,0.2c-0.3,1.49.6,3.88-.8,4.48-0.1.4-.6,0.4-0.6,0.9a8.89,8.89,0,0,0,1.29-1.39H156l-0.1,5.77c-0.2.7,0.3,1.79-.5,2a41.45,41.45,0,0,1-5,.1c-3.18-.2-6.17-0.1-9.25-0.1a0.63,0.63,0,0,1-.1-0.9c0.9-.3,2.09-0.1,2.69-1,0.9-.7.4-2.69,0.5-4,0.1-2.19-.2-5.07,0-7.06l-0.1-5.67V6.52A2,2,0,0,0,142.32,5c-0.6,0-1.29.1-1.09-.7,0.1-.4,10.44-0.3,12-0.3h0Z" transform="translate(-2 -3.83)"/><path class="cls-1" d="M203.89,6.92c1.29,1.79,1.69,4.38,2.29,6.86,0.7,5.17.2,11.14-1.79,14.92a8.71,8.71,0,0,1-3.18,3.38c-1.19.3-3,.4-3.78-0.4-3.78-3.48-4.67-9-4.58-15.32a18.55,18.55,0,0,1,4-11.24,4.45,4.45,0,0,1,4.48-.9,8.35,8.35,0,0,1,2.59,2.69h0Z" transform="translate(-2 -3.83)"/><path class="cls-1" d="M170.67,4.33l0.2,0.3,0.1,7.66c-0.3,1.29,0,2.88-.2,4.18a0.6,0.6,0,0,1-.8-0.1l-0.3-4.87c-0.4-2.29-.8-4.38-2.09-6a0.9,0.9,0,0,0-1.19,0l-0.4.4V30.09c0.2,1.39,2.19.6,3,1.19a0.67,0.67,0,0,1-.5.9c-2.59.3-5.17-.2-7.76,0-0.6.1-.6-0.6-0.4-0.9,0.9-.2,2-0.1,2.29-1l0.1-11.14V6a1.38,1.38,0,0,0-.8-0.7c-1.79.2-1.89,2-2.39,3.28L158.73,14c-0.2.9,0.2,2.09-.3,2.59l-0.6-.1-0.1-5.57c0-2-.1-4.48.1-6.47,0.7-.5,11.14-0.2,12.83-0.1h0Z" transform="translate(-2 -3.83)"/><path class="cls-1" d="M192.15,4.23c0.5-.1.6,0.4,0.4,0.7-1,.2-2,0.2-2.59.9-0.7,1.59.1,3.68-.2,5.37,0.1,0.3-.1.9,0,1.39,0.1,1.29,0,2.79,0,4V27.7c-0.6,2-1.49,4-3.48,4.48a4,4,0,0,1-4.18-1.39c-1.09-1.59-2.29-3.68-1.39-6.07a2.4,2.4,0,0,1,2.09-1.49,2.06,2.06,0,0,1,1.29.89c-0.1.9,0.5,1.89-.1,2.49-0.1.8-1.19,0.8-1.19,1.69a2.82,2.82,0,0,0,1.59,2.59,1.85,1.85,0,0,0,1.89-.7c0.7-2,.3-5.17.3-7.36l0.1-5.77V6.82a3.66,3.66,0,0,0-.9-1.59c-0.6-.5-2,0.2-2.29-0.6l0.3-.6c3.08,0,5.27.3,8.36,0.2h0Z" transform="translate(-2 -3.83)"/><path class="cls-1" d="M213.94,4.33a1.21,1.21,0,0,1,1.49.2c0.1,0.6-.3.7-0.7,0.8a2.23,2.23,0,0,0-1.39.6,5.68,5.68,0,0,0-.4,2.69V19.95l-0.1.1c0.2,3,0,5,.2,8.06A4.44,4.44,0,0,0,215.13,31a2.86,2.86,0,0,0,2.69-.6,4,4,0,0,0,1.39-2.88V17.56l-0.1-.6,0.1-8.75a3.87,3.87,0,0,0-.6-2.59,4.52,4.52,0,0,0-2-.5l0.1-.7,5.27-.1a0.53,0.53,0,0,1,.5.5c0,0.5-.8.2-1,0.4a1.16,1.16,0,0,0-1,1l-0.3,1.59V27.7a6.38,6.38,0,0,1-2.39,4.08c-0.8.7-2.39,0.4-3.28,0.6a5.59,5.59,0,0,1-4.28-3.68c-1.19-2.49-.4-6.56-0.7-9.25V6.62a2.2,2.2,0,0,0-1-1.29c-0.5-.2-1.39,0-1.39-0.6s0.6-.3.9-0.5l5.87,0.1h0Z" transform="translate(-2 -3.83)"/><path class="cls-1" d="M230,4.43c3-.4,6,0.2,7.16,2.59a7.91,7.91,0,0,1,.9,6.27c-0.9,1.59-1.59,3.58-3.38,4.38,0,0.9,1,1.09,1.39,1.79a5.29,5.29,0,0,1,.8,2.59l0.2,5.07c0,0.89-.1,2.39.8,2.79,1.19-.4.9-2.19,1.09-3.48a0.63,0.63,0,0,1,.6,0A6.58,6.58,0,0,1,238,32a3.34,3.34,0,0,1-2.39.4c-0.9,0-.9-1-1.49-1.49L233.83,28V22.23c-0.1-1.29-.2-2.79-1.19-3.48a3.13,3.13,0,0,0-3-.4l-0.2.3c-0.4,3.88.1,7.06,0,11.14a1.79,1.79,0,0,0,.9,1.59,9.89,9.89,0,0,1,1.59.2c0.1,0.2,0,.5.1,0.8l-5.27.1-2.88-.2a0.6,0.6,0,0,1,0-.8,2.85,2.85,0,0,0,2.09-.8l0.3-1V6.82a2.13,2.13,0,0,0-.9-1.49c-0.5-.2-1.39.1-1.39-0.6,0.3-.7.9-0.1,1.59-0.4,1.49,0.1,2.69.1,4.38,0.1h0Z" transform="translate(-2 -3.83)"/><path class="cls-1" d="M244.57,4.33a2,2,0,0,1,.7.6c2,5.57,3.48,11.34,5.77,16.71,0.6-.1-0.2-0.7.2-1-0.1-2.09.1-4.08-.1-6.27,0.2-1.19,0-2.09.1-3.38-0.3-.2.2-0.5-0.1-0.6a31.43,31.43,0,0,0-.1-4.28,2.77,2.77,0,0,0-2.39-.9c0-.1-0.2-0.7.2-0.8h5.77c0.4,0.1.2,0.5,0.2,0.8-0.6.3-1.49,0.2-1.89,0.8l-0.4,1-0.1,5.37v17a27.92,27.92,0,0,1-.1,2.88,0.76,0.76,0,0,1-.89.1c-0.7-.9-0.6-2.39-1.29-3.28-1.09-2.69-1.69-5.77-2.79-8.36l-2-5.67c-0.3-1-.8-1.79-1.09-2.69l-0.2.1a7.77,7.77,0,0,0-.1,3.38l-0.1,5.37v8.85a2.37,2.37,0,0,0,.9,1.29c0.5,0.3,1.69-.3,1.69.6l-0.1.4-5.57.1c-0.4-.1-0.89-0.1-0.89-0.6,0.4-.8,2.09,0,2.49-1a7,7,0,0,0,.4-3l-0.1-11.44V6.92c-0.2-1.39-1.59-1.49-2.69-1.79-0.3-.2,0-0.5,0-0.7a34.7,34.7,0,0,1,4.58-.1h0Z" transform="translate(-2 -3.83)"/><path class="cls-1" d="M264,9.4c0.4,2.78,1.29,5.27,1.59,8.16l1.79,8.26c0.6,2,.5,4.58,2.39,5.57,0.5,0.1,1.09.1,0.8,0.89l-0.1.2a50.72,50.72,0,0,1-7.76-.1c-0.5-1.39,1.19-.8,1.79-1.19a2.31,2.31,0,0,0,.5-2.09,15.51,15.51,0,0,0-1.09-4,26.24,26.24,0,0,0-4.87.1,4.32,4.32,0,0,0-.6,2.09c-0.2,1.19-1,3,.2,4,0.5,0.5,2.49-.4,1.79,1.09a28.87,28.87,0,0,1-5.07.2c-0.5-.2-1.59.2-1.29-0.8,0-.6,1-0.2,1.29-0.4a3.26,3.26,0,0,0,1.49-2.29L258,22.33l1.49-8.55,0.9-5a14.9,14.9,0,0,1,1.19-4.38l1.29,0.1L264,9.4h0Z" transform="translate(-2 -3.83)"/><path class="cls-1" d="M279.09,4.43a0.77,0.77,0,0,1,.8.7c-0.2.7-1.49,0.3-2,.7-0.7.3-.7,1.19-0.89,1.79V29.79a1.41,1.41,0,0,0,.6,1.59,5.48,5.48,0,0,0,3.58.1c1.59-1,1.89-3,2.59-4.77l0.7-5.17a0.59,0.59,0,0,1,.8,0v9.25h-0.1a5.44,5.44,0,0,1-.1,1.79,10.23,10.23,0,0,1-1.69.1l-0.3-.1-5.37.1c-2.09-.1-4.38.2-6.07-0.3a0.59,0.59,0,0,1-.1-0.7c0.6-.4,1.89.1,2.19-0.8l0.1-1V6.42c-0.5-1-1.59-1.09-2.59-1.09,0-.4-0.2-0.8.2-0.89h7.66Z" transform="translate(-2 -3.83)"/><path class="cls-1" d="M202.1,7l0.2,1.89v6.27l0.1,0.1L202.3,28.2a7.21,7.21,0,0,1-1.19,2.49,2.43,2.43,0,0,1-2.59.1c-1.49-1-1.79-2.88-1.69-4.58-0.1-1.39.4-2.59,0-3.88,0.1-1.49,0-3.18.2-4.77-0.2-.1,0-0.7-0.2-0.8,0.4-.5-0.1-0.8,0-1.29,0.1-2.49,0-4.38,0-7.26,0.4-1.29,1-2.79,2.39-3.08A2.94,2.94,0,0,1,202.1,7h0Z" transform="translate(-2 -3.83)"/><path class="cls-1" d="M117.06,5.32c2.79,1.69,1.69,6,1.59,9.15a4,4,0,0,1-1.39,2.19,4.67,4.67,0,0,1-3.28.1l-0.1-10.15a1.34,1.34,0,0,1,1.29-1.39,6.2,6.2,0,0,1,1.89.1h0Z" transform="translate(-2 -3.83)"/><path class="cls-1" d="M234.33,6.92a10,10,0,0,1,.4,2.39l-0.1,5.27a3.16,3.16,0,0,1-1.49,2.29,7.26,7.26,0,0,1-3.58,0c-0.1-3.78-.1-6.66-0.1-10.44a1.64,1.64,0,0,1,1.09-1.19c1.89-.4,2.88.6,3.78,1.69h0Z" transform="translate(-2 -3.83)"/><path class="cls-1" d="M261.48,12.78c0.6,3.78,1.79,7.16,2.29,11l-0.2.2-4,.1-0.5-.3a23.24,23.24,0,0,1,.6-3.48l0.8-5.27a16.74,16.74,0,0,1,.6-2.39l0.4,0.1h0Z" transform="translate(-2 -3.83)"/><path class="cls-1" d="M31.91,18.06l1,5.37c-0.7.8-2.09,0-3.18,0.3l-0.8-.1L29,22.33l0.9-5.67L30.62,13l0.2,0.1,1.09,5h0Z" transform="translate(-2 -3.83)"/></svg>