<?xml version="1.0" encoding="utf-8"?>
<!-- Generator: Adobe Illustrator 19.2.1, SVG Export Plug-In . SVG Version: 6.00 Build 0)  -->
<svg version="1.1" id="Layer_1" xmlns="http://www.w3.org/2000/svg" xmlns:xlink="http://www.w3.org/1999/xlink" x="0px" y="0px"
	 viewBox="0 0 1400 787" style="enable-background:new 0 0 1400 787;" xml:space="preserve">
<style type="text/css">
	.st0{fill:#FFFFFF;}
	.st1{fill:#E5E3E3;}
</style>
<title>mit_white</title>
<path class="st0" d="M47,50.3c-0.3,30.9,0,61.8-0.1,92.7v579.7c47.2,0.1,94.4,0,141.6,0.1c0.1-224.2,0.1-448.3,0-672.5
	C141.3,50.4,94.2,50.4,47,50.3z M278.1,50.3c0,152.5,0,305,0,457.5c47.2,0,94.3,0,141.5,0c0-152.5,0-305,0-457.5L278.1,50.3
	L278.1,50.3z M508.8,50.3c0.1,224.2,0.1,448.3,0,672.5c47.2,0,94.3,0,141.5,0c0-224.2,0-448.3,0-672.5
	C603.2,50.4,556,50.3,508.8,50.3L508.8,50.3z M740,50.3c-0.1,44.5,0,89.1,0,133.6c47.2,0,94.3,0,141.5,0c0-44.5,0-89,0-133.6
	C834.3,50.3,787.1,50.4,740,50.3z M974.7,50.4c0,44.5,0,89,0,133.4c124.3,0,248.5,0,372.8,0c0-44.5,0-89,0-133.4L974.7,50.4
	L974.7,50.4z M740,265c0,152.6,0,305.2,0,457.8c47.2,0,94.3,0,141.5,0c0-152.6,0-305.2,0-457.9C834.3,265.1,787.1,265,740,265z
	 M974.8,265c0,152.6,0,305.2,0,457.9c47.2,0,94.3,0,141.5,0c0.1-152.6,0.1-305.3,0-457.9C1069.1,265.1,1021.9,265.1,974.8,265
	L974.8,265z"/>
<path class="st0" d="M47,50.3c47.2,0,94.3,0,141.4,0c0,224.2,0,448.3,0,672.5c-47.2-0.1-94.4,0-141.6-0.1V143
	C47,112.1,46.7,81.2,47,50.3z"/>
<path class="st0" d="M278.1,50.3h141.5c0,152.5,0,305,0,457.5c-47.2,0-94.3,0-141.5,0C278.1,355.4,278.1,202.8,278.1,50.3z"/>
<path class="st0" d="M508.8,50.4c47.2-0.1,94.4,0,141.6,0c-0.1,224.2-0.1,448.3,0,672.5c-47.2,0-94.3,0-141.5,0
	C508.8,498.7,508.7,274.5,508.8,50.4z"/>
<path class="st0" d="M740,50.3c47.2,0.1,94.3,0,141.5,0c0,44.5,0,89,0,133.6c-47.2,0-94.3,0-141.5,0C740,139.4,739.9,94.8,740,50.3z
	"/>
<path class="st0" d="M974.6,50.4h372.8c0,44.5,0,89,0,133.5c-124.3,0-248.5,0-372.8,0C974.6,139.4,974.6,94.9,974.6,50.4z"/>
<path class="st0" d="M974.7,265c47.2,0.1,94.3,0.1,141.5,0c0,152.6,0,305.3,0,457.9c-47.2-0.1-94.3,0-141.5,0
	C974.7,570.2,974.7,417.6,974.7,265z"/>
<path class="st1" d="M740,265c47.2,0,94.3,0.1,141.5-0.1c0,152.6,0,305.2,0,457.9c-47.2,0-94.3,0-141.5,0
	C740,570.2,740,417.6,740,265z"/>
</svg>
