<svg id="Layer_1" data-name="Layer 1" xmlns="http://www.w3.org/2000/svg" viewBox="0 0 1400 787"><defs><style>.cls-1{fill:#fff;}.cls-2{fill:#e5e3e3;}</style></defs><title>mit_white</title><path class="cls-1" d="M0,0.5H1400v787H0V0.5ZM47,50.82c-0.3,30.9,0,61.81-.13,92.71V723.27c47.18,0.11,94.36,0,141.55.06q0.08-336.25,0-672.51Q117.74,50.87,47,50.82Zm231.09,0q0,228.77,0,457.54,70.75,0,141.51,0,0-228.78,0-457.55H278.12Zm230.66,0q0.09,336.23,0,672.45,70.74,0,141.5,0,0-336.25,0-672.5C603.15,50.87,556,50.78,508.78,50.87ZM740,50.8c-0.09,44.53,0,89.06-.05,133.59q70.76,0.06,141.52,0,0-66.78,0-133.57C834.3,50.81,787.14,50.89,740,50.8Zm234.66,0.1q0,66.72,0,133.44,186.41,0,372.81,0,0-66.72,0-133.45H974.64ZM740,265.54q0,228.88,0,457.78,70.74,0,141.47,0,0-228.93,0-457.86C834.28,265.61,787.12,265.49,740,265.54Zm234.76-.09q0,228.92,0,457.85c47.17,0.05,94.34,0,141.52,0q0.08-228.94,0-457.9Q1045.48,265.68,974.72,265.45Z" transform="translate(0 -0.5)"/><path class="cls-1" d="M47,50.82q70.73,0,141.44,0,0,336.26,0,672.51c-47.19-.07-94.37,0-141.55-0.06V143.53C47,112.63,46.73,81.72,47,50.82Z" transform="translate(0 -0.5)"/><path class="cls-1" d="M278.12,50.84h141.5q0,228.78,0,457.55-70.75,0-141.51,0Q278.1,279.6,278.12,50.84Z" transform="translate(0 -0.5)"/><path class="cls-1" d="M508.78,50.87c47.19-.09,94.37,0,141.56,0q-0.08,336.24,0,672.5-70.76,0-141.5,0Q508.73,387.1,508.78,50.87Z" transform="translate(0 -0.5)"/><path class="cls-1" d="M740,50.8c47.16,0.09,94.32,0,141.48,0q0,66.78,0,133.57-70.76,0-141.52,0C740,139.86,739.89,95.33,740,50.8Z" transform="translate(0 -0.5)"/><path class="cls-1" d="M974.64,50.9h372.83q0,66.72,0,133.45-186.4,0-372.81,0Q974.6,117.62,974.64,50.9Z" transform="translate(0 -0.5)"/><path class="cls-1" d="M974.72,265.45q70.75,0.21,141.53,0,0,228.95,0,457.9c-47.18-.07-94.35,0-141.52,0Q974.74,494.37,974.72,265.45Z" transform="translate(0 -0.5)"/><path class="cls-2" d="M740,265.54c47.16-.05,94.32.07,141.49-0.07q0,228.93,0,457.86-70.74,0-141.47,0Q739.93,494.44,740,265.54Z" transform="translate(0 -0.5)"/></svg>